HIERARCHY
ROOT Hips
{
	OFFSET 0.000000 0.000000 0.000000
	CHANNELS 6 Xposition Yposition Zposition Zrotation Yrotation Xrotation 
	JOINT LHipJoint
	{
		OFFSET 0.000000 0.000000 0.000000
		CHANNELS 3 Zrotation Yrotation Xrotation
		JOINT LeftUpLeg
		{
			OFFSET 1.363060 -1.794630 0.839290
			CHANNELS 3 Zrotation Yrotation Xrotation
			JOINT LeftLeg
			{
				OFFSET 2.448110 -6.726130 0.000000
				CHANNELS 3 Zrotation Yrotation Xrotation
				JOINT LeftFoot
				{
					OFFSET 2.562200 -7.039590 0.000000
					CHANNELS 3 Zrotation Yrotation Xrotation
					JOINT LeftToeBase
					{
						OFFSET 0.157640 -0.433110 2.322550
						CHANNELS 3 Zrotation Yrotation Xrotation
						End Site
						{
							OFFSET 0.000000 0.000000 0.000000
						}
					}
				}
			}
		}
	}
	JOINT RHipJoint
	{
		OFFSET 0.000000 0.000000 0.000000
		CHANNELS 3 Zrotation Yrotation Xrotation
		JOINT RightUpLeg
		{
			OFFSET -1.305520 -1.794630 0.839290
			CHANNELS 3 Zrotation Yrotation Xrotation
			JOINT RightLeg
			{
				OFFSET -2.542530 -6.985550 0.000000
				CHANNELS 3 Zrotation Yrotation Xrotation
				JOINT RightFoot
				{
					OFFSET -2.568260 -7.056230 0.000000
					CHANNELS 3 Zrotation Yrotation Xrotation
					JOINT RightToeBase
					{
						OFFSET -0.164730 -0.452590 2.363150
						CHANNELS 3 Zrotation Yrotation Xrotation
						End Site
						{
							OFFSET 0.000000 0.000000 0.000000
						}
					}
				}
			}
		}
	}
	JOINT LowerBack
	{
		OFFSET 0.000000 0.000000 0.000000
		CHANNELS 3 Zrotation Yrotation Xrotation
		JOINT Spine
		{
			OFFSET 0.028270 2.035590 -0.193380
			CHANNELS 3 Zrotation Yrotation Xrotation
			JOINT Spine1
			{
				OFFSET 0.056720 2.048850 -0.042750
				CHANNELS 3 Zrotation Yrotation Xrotation
				JOINT Neck
				{
					OFFSET 0.000000 0.000000 0.000000
					CHANNELS 3 Zrotation Yrotation Xrotation
					JOINT Neck1
					{
						OFFSET -0.054170 1.746240 0.172020
						CHANNELS 3 Zrotation Yrotation Xrotation
						JOINT Head
						{
							OFFSET 0.104070 1.761360 -0.123970
							CHANNELS 3 Zrotation Yrotation Xrotation
							End Site
							{
								OFFSET 0.000000 0.000000 0.000000
							}
						}
					}
				}
				JOINT LeftShoulder
				{
					OFFSET 0.000000 0.000000 0.000000
					CHANNELS 3 Zrotation Yrotation Xrotation
					JOINT LeftArm
					{
						OFFSET 3.362410 1.200890 -0.311210
						CHANNELS 3 Zrotation Yrotation Xrotation
						JOINT LeftForeArm
						{
							OFFSET 4.983000 -0.000000 -0.000000
							CHANNELS 3 Zrotation Yrotation Xrotation
							JOINT LeftHand
							{
								OFFSET 3.483560 -0.000000 -0.000000
								CHANNELS 3 Zrotation Yrotation Xrotation
								JOINT LeftFingerBase
								{
									OFFSET 0.000000 0.000000 0.000000
									CHANNELS 3 Zrotation Yrotation Xrotation
									JOINT LeftHandIndex1
									{
										OFFSET 0.715260 -0.000000 -0.000000
										CHANNELS 3 Zrotation Yrotation Xrotation
										End Site
										{
											OFFSET 0.000000 0.000000 0.000000
										}
									}
								}
								JOINT LThumb
								{
									OFFSET 0.000000 0.000000 0.000000
									CHANNELS 3 Zrotation Yrotation Xrotation
									End Site
									{
										OFFSET 0.000000 0.000000 0.000000
									}
								}
							}
						}
					}
				}
				JOINT RightShoulder
				{
					OFFSET 0.000000 0.000000 0.000000
					CHANNELS 3 Zrotation Yrotation Xrotation
					JOINT RightArm
					{
						OFFSET -3.136600 1.374050 -0.404650
						CHANNELS 3 Zrotation Yrotation Xrotation
						JOINT RightForeArm
						{
							OFFSET -5.241900 -0.000000 -0.000000
							CHANNELS 3 Zrotation Yrotation Xrotation
							JOINT RightHand
							{
								OFFSET -3.444170 -0.000000 -0.000000
								CHANNELS 3 Zrotation Yrotation Xrotation
								JOINT RightFingerBase
								{
									OFFSET 0.000000 0.000000 0.000000
									CHANNELS 3 Zrotation Yrotation Xrotation
									JOINT RightHandIndex1
									{
										OFFSET -0.622530 -0.000000 -0.000000
										CHANNELS 3 Zrotation Yrotation Xrotation
										End Site
										{
											OFFSET 0.000000 0.000000 0.000000
										}
									}
								}
								JOINT RThumb
								{
									OFFSET 0.000000 0.000000 0.000000
									CHANNELS 3 Zrotation Yrotation Xrotation
									End Site
									{
										OFFSET 0.000000 0.000000 0.000000
									}
								}
							}
						}
					}
				}
			}
		}
	}
}
MOTION
Frames: 10
Frame Time: 0.008333
16.471781 16.508654 2.091900 148.200431 -84.544152 -99.684835 -8.183709 -0.361195 3.344467 -9.630952 -14.660550 -60.642629 -2.201444 -0.573581 25.465662 3.691840 11.838485 -17.840161 -1.603700 -0.000000 -33.275300 8.136955 1.047059 3.586496 1.921104 7.497437 -64.727944 2.083996 -0.895433 29.080461 -3.178306 -7.655070 -16.590465 0.481900 0.000000 -52.976700 0.661215 -1.504120 -2.927447 -0.790339 -1.719112 -3.787634 -5.958509 -1.940619 0.038761 8.688565 -2.265026 -6.813480 -3.539058 -0.255831 -0.205390 0.000000 0.000000 0.000000 -1.905485 -2.446881 3.807705 -72.932104 -8.249959 7.544917 -2.552828 -14.609744 -0.003405 2.814763 -2.187908 -0.058145 -0.067272 0.136162 -0.000000 0.000000 0.000000 0.000000 0.000000 0.000000 0.000000 16.718729 -0.883647 3.341538 71.340583 13.615574 -4.705211 2.205354 15.441968 0.001983 -2.875994 8.048027 -0.212832 0.080456 -0.201574 0.000000 0.000000 0.000000 0.000000 0.000000 0.000000 0.000000 
16.443938 16.427125 2.089164 146.022674 -84.501279 -96.405250 -8.103789 -0.343883 3.511947 -9.463489 -15.381164 -62.826275 -2.147096 -0.413648 27.375477 3.816398 11.898547 -18.678273 -1.792800 -0.000000 -33.161700 8.157880 1.125421 3.739079 1.462912 7.607150 -67.141692 1.988425 -1.175669 31.385019 -3.289774 -7.712841 -17.557385 0.646100 0.000000 -52.610400 0.589822 -1.532088 -3.181742 -0.809373 -1.750300 -3.851058 -5.925169 -1.974493 0.034496 8.698324 -2.387951 -6.995412 -3.520476 -0.252193 -0.269835 0.000000 0.000000 0.000000 -1.924412 -2.449756 3.861326 -72.899132 -7.884791 8.070630 -2.534810 -14.877118 -0.003175 2.637273 -2.077765 -0.051944 -0.066068 0.136596 -0.000000 0.000000 0.000000 0.000000 0.000000 0.000000 0.000000 16.775909 -0.969525 3.407355 71.229086 13.105654 -4.165195 2.192183 15.734875 0.002103 -2.755600 7.926300 -0.201130 0.079756 -0.202282 0.000000 0.000000 0.000000 0.000000 0.000000 0.000000 0.000000 
16.417233 16.338736 2.086820 143.846914 -84.454413 -93.144224 -8.029600 -0.335591 3.665504 -9.266367 -16.103485 -65.061680 -2.075770 -0.233988 29.440625 3.946228 11.976730 -19.556026 -1.997200 -0.000001 -33.031700 8.178596 1.215932 3.876254 0.988603 7.701853 -69.572795 1.877144 -1.471136 33.800988 -3.405414 -7.802310 -18.532996 0.818000 0.000000 -52.266200 0.523739 -1.559941 -3.403354 -0.827864 -1.780718 -3.902406 -5.892071 -2.006893 0.044450 8.717115 -2.585450 -7.206047 -3.501687 -0.248094 -0.343977 0.000000 0.000000 0.000000 -1.951957 -2.376183 3.911106 -72.846756 -7.647304 8.741097 -2.519476 -15.146745 -0.002939 2.461779 -1.975674 -0.046242 -0.065070 0.137380 -0.000000 0.000000 0.000000 0.000000 0.000000 0.000000 0.000000 16.857511 -1.126960 3.470078 71.092472 12.700671 -3.466456 2.180773 16.038274 0.002171 -2.664267 7.792239 -0.191428 0.079490 -0.202928 0.000000 0.000000 0.000000 0.000000 0.000000 0.000000 0.000000 
16.391253 16.242576 2.084411 141.561311 -84.391077 -89.788212 -7.956366 -0.332372 3.816458 -9.045075 -16.854985 -67.352796 -1.985328 -0.039421 31.647225 4.085755 12.094331 -20.466173 -2.218101 -0.000000 -32.856500 8.205184 1.322877 4.006210 0.471656 7.768090 -72.051813 1.744840 -1.785391 36.365990 -3.523712 -7.920752 -19.519242 0.998699 -0.000000 -51.946200 0.449201 -1.590729 -3.615801 -0.848724 -1.813208 -3.959355 -5.858419 -2.041832 0.024937 8.725339 -2.699103 -7.383092 -3.484378 -0.244427 -0.409193 0.000000 0.000000 0.000000 -1.973434 -2.412486 3.968510 -72.780690 -7.301430 9.366365 -2.502120 -15.552557 -0.002699 2.276666 -1.866773 -0.040639 -0.063790 0.138474 -0.000000 0.000000 0.000000 0.000000 0.000000 0.000000 0.000000 16.923081 -1.194414 3.538072 70.969681 12.192961 -2.874117 2.163514 16.437613 0.002239 -2.544307 7.664989 -0.180027 0.078554 -0.204160 0.000000 0.000000 0.000000 0.000000 0.000000 0.000000 0.000000 
16.366186 16.138891 2.082392 139.272478 -84.320591 -86.453104 -7.888963 -0.341171 3.954325 -8.794255 -17.608817 -69.678368 -1.875722 0.169418 33.988857 4.231133 12.241720 -21.410241 -2.456800 0.000001 -32.631899 8.231228 1.443323 4.123359 -0.066991 7.814314 -74.530449 1.594941 -2.108730 39.024476 -3.643975 -8.070937 -20.509058 1.188700 -0.000000 -51.646900 0.378568 -1.622128 -3.801388 -0.869112 -1.845769 -4.008377 -5.824752 -2.076445 0.008637 8.735256 -2.845003 -7.570951 -3.467109 -0.240548 -0.478626 0.000000 0.000000 0.000000 -2.002305 -2.422064 4.024401 -72.695658 -7.019211 10.075253 -2.486372 -15.986094 -0.002446 2.091684 -1.764863 -0.035434 -0.062579 0.139877 -0.000000 0.000000 0.000000 0.000000 0.000000 0.000000 0.000000 16.997952 -1.291514 3.604709 70.834836 11.739349 -2.217166 2.145995 16.849119 0.002267 -2.445235 7.540497 -0.170425 0.077826 -0.205537 0.000000 0.000000 0.000000 0.000000 0.000000 0.000000 0.000000 
16.341954 16.027462 2.080697 136.963644 -84.241797 -83.127624 -7.826947 -0.363146 4.080208 -8.515694 -18.364911 -72.028763 -1.747087 0.389355 36.452959 4.382016 12.421596 -22.386331 -2.714700 -0.000000 -32.348000 8.256808 1.577214 4.229464 -0.627782 7.836758 -77.002180 1.427365 -2.438767 41.770899 -3.764757 -8.250185 -21.502803 1.389300 0.000000 -51.366500 0.311076 -1.654675 -3.964816 -0.889085 -1.879033 -4.053677 -5.791172 -2.111664 -0.015713 8.741032 -2.979439 -7.752013 -3.450553 -0.236729 -0.546927 0.000000 0.000000 0.000000 -2.037360 -2.453739 4.081381 -72.591803 -6.738792 10.812394 -2.471002 -16.477068 -0.002179 1.906050 -1.670846 -0.030729 -0.061319 0.141588 -0.000000 0.000000 0.000000 0.000000 0.000000 0.000000 0.000000 17.070462 -1.374420 3.671785 70.699414 11.286353 -1.579225 2.126197 17.285443 0.002268 -2.355119 7.429663 -0.161923 0.077039 -0.207257 0.000000 0.000000 0.000000 0.000000 0.000000 0.000000 0.000000 
16.318335 15.908230 2.079378 134.651136 -84.157567 -79.832394 -7.771422 -0.400861 4.192120 -8.210605 -19.113978 -74.390951 -1.600553 0.617995 39.028217 4.536411 12.630366 -23.394074 -2.992900 -0.000000 -32.006600 8.280259 1.722450 4.324350 -1.201086 7.835959 -79.450068 1.243961 -2.771617 44.586638 -3.884787 -8.455671 -22.500680 1.601301 -0.000000 -51.102600 0.250751 -1.687949 -4.105022 -0.907670 -1.912829 -4.094836 -5.758153 -2.147323 -0.047723 8.742276 -3.099654 -7.924239 -3.435015 -0.233027 -0.613398 0.000000 0.000000 0.000000 -2.082326 -2.507886 4.138871 -72.466915 -6.460028 11.570990 -2.455838 -17.017281 -0.001900 1.723946 -1.591210 -0.026623 -0.060029 0.143619 -0.000000 0.000000 0.000000 0.000000 0.000000 0.000000 0.000000 17.140250 -1.441637 3.738762 70.564001 10.835882 -0.976080 2.104056 17.733531 0.002241 -2.278029 7.339758 -0.154921 0.076226 -0.209350 0.000000 0.000000 0.000000 0.000000 0.000000 0.000000 0.000000 
16.295479 15.781395 2.078471 132.343577 -84.072008 -76.583765 -7.723077 -0.456986 4.287730 -7.880147 -19.845635 -76.751135 -1.437861 0.853304 41.702384 4.691635 12.862188 -24.431925 -3.291500 -0.000000 -31.619000 8.299940 1.876353 4.407208 -1.773874 7.813641 -81.857756 1.047025 -3.104110 47.452956 -4.003037 -8.684618 -23.502911 1.825900 0.000000 -50.854000 0.202164 -1.721752 -4.219962 -0.923666 -1.947216 -4.130278 -5.726267 -2.183413 -0.083644 8.740825 -3.214219 -8.089924 -3.420582 -0.229429 -0.678550 0.000000 0.000000 0.000000 -2.141229 -2.569583 4.195362 -72.318585 -6.201189 12.360538 -2.441375 -17.587835 -0.001608 1.551285 -1.534839 -0.023216 -0.058795 0.145986 -0.000000 0.000000 0.000000 0.000000 0.000000 0.000000 0.000000 17.209693 -1.503654 3.804291 70.426106 10.406762 -0.398253 2.080403 18.171277 0.002179 -2.223028 7.278221 -0.150118 0.075521 -0.211778 0.000000 0.000000 0.000000 0.000000 0.000000 0.000000 0.000000 
16.273358 15.647208 2.078019 130.055857 -83.990723 -73.402027 -7.683001 -0.533645 4.365292 -7.526536 -20.546919 -79.094716 -1.261352 1.093777 44.463586 4.844539 13.109236 -25.498264 -3.609900 -0.000000 -31.205300 8.314463 2.034915 4.477715 -2.329500 7.774834 -84.208153 0.839000 -3.433395 50.351148 -4.119001 -8.935157 -24.509763 2.063700 -0.000000 -50.621900 0.170980 -1.754450 -4.309143 -0.935974 -1.980934 -4.161605 -5.696854 -2.218842 -0.129311 8.735304 -3.297332 -8.237939 -3.408778 -0.226200 -0.738985 0.000000 0.000000 0.000000 -2.218220 -2.667697 4.251729 -72.144759 -5.930796 13.141994 -2.426204 -18.196957 -0.001316 1.392229 -1.504825 -0.020508 -0.057556 0.148696 -0.000000 0.000000 0.000000 0.000000 0.000000 0.000000 0.000000 17.278953 -1.534971 3.869422 70.288432 9.972225 0.098795 2.054329 18.601060 0.002095 -2.179118 7.244697 -0.146516 0.074726 -0.214596 0.000000 0.000000 0.000000 0.000000 0.000000 0.000000 0.000000 
16.251734 15.506156 2.078041 127.794271 -83.919365 -70.300098 -7.651519 -0.632548 4.423210 -7.151850 -21.205874 -81.407700 -1.073398 1.338283 47.298566 4.992108 13.364872 -26.588792 -3.946299 -0.000000 -30.792300 8.323029 2.194439 4.534893 -2.850943 7.725261 -86.487410 0.622088 -3.757644 53.264465 -4.232394 -9.205860 -25.520151 2.315400 -0.000000 -50.407699 0.162192 -1.785149 -4.371163 -0.943492 -2.013399 -4.188247 -5.671171 -2.253043 -0.183620 8.728170 -3.345916 -8.366330 -3.400628 -0.223457 -0.793958 0.000000 0.000000 0.000000 -2.317721 -2.800139 4.307247 -71.942994 -5.653830 13.908083 -2.410246 -18.831017 -0.001029 1.251439 -1.505873 -0.018498 -0.056349 0.151746 -0.000000 0.000000 0.000000 0.000000 0.000000 0.000000 0.000000 17.353640 -1.534013 3.933585 70.147653 9.538471 0.508524 2.026411 19.009071 0.001990 -2.144709 7.238452 -0.144213 0.073828 -0.217736 0.000000 0.000000 0.000000 0.000000 0.000000 0.000000 0.000000 
